<?xml version="1.0" encoding="utf-8"?>
<!-- Svg Vector Icons : http://www.onlinewebfonts.com/icon -->
<!DOCTYPE svg PUBLIC "-//W3C//DTD SVG 1.1//EN" "http://www.w3.org/Graphics/SVG/1.1/DTD/svg11.dtd">
<svg version="1.1" fill="#fff" id="new" xmlns="http://www.w3.org/2000/svg" xmlns:xlink="http://www.w3.org/1999/xlink" x="0px" y="0px" viewBox="0 0 1000 1000" enable-background="new 0 0 1000 1000" xml:space="preserve">
<metadata> Svg Vector Icons : http://www.onlinewebfonts.com/icon </metadata>
<g><g transform="translate(0.000000,511.000000) scale(0.100000,-0.100000)"><path d="M4267.6,4516c-963.1-122.3-1840.3-463.3-2513.8-973.8c-712.1-542.7-1151.8-1252.6-1244-2007.6c-45-364.6-19.3-484.8,115.8-568.4c68.6-42.9,96.5-42.9,4352-42.9c4731.7,0,4364.9-10.7,4452.8,135.1c53.6,85.8,55.7,293.9,10.7,564.1c-105.1,604.9-373.2,1102.5-858,1585.1c-679.9,679.9-1574.4,1102.5-2728.3,1289.1C5558.8,4546,4591.4,4556.7,4267.6,4516z M5440.8,3945.4c862.3-77.2,1598-321.7,2230.7-742.1c289.6-193,660.6-551.2,821.5-793.6c182.3-276.7,358.2-697.1,358.2-862.3v-45H4977.5H1103.8l15,90.1c72.9,433.3,407.5,978.1,821.5,1336.3C2804.7,3679.5,4134.6,4065.6,5440.8,3945.4z"/><path d="M2927,2920.2c-60.1-53.6-70.8-77.2-70.8-163c0-85.8,10.7-109.4,70.8-163c51.5-47.2,90.1-62.2,154.4-62.2s102.9,15,154.4,62.2c60.1,53.6,70.8,77.2,70.8,163c0,85.8-10.7,109.4-70.8,163c-51.5,47.2-90.1,62.2-154.4,62.2S2978.5,2967.4,2927,2920.2z"/><path d="M6787.8,2920.2c-60.1-53.6-70.8-77.2-70.8-163c0-85.8,10.7-109.4,70.8-163c51.5-47.2,90.1-62.2,154.4-62.2c64.3,0,102.9,15,154.4,62.2c60.1,53.6,70.8,77.2,70.8,163c0,85.8-10.7,109.4-70.8,163c-51.5,47.2-90.1,62.2-154.4,62.2C6877.9,2982.4,6839.3,2967.4,6787.8,2920.2z"/><path d="M4857.4,2705.7c-60.1-53.6-70.8-77.2-70.8-163s10.7-109.4,70.8-163c51.5-47.2,90.1-62.2,154.4-62.2s102.9,15,154.4,62.2c60,53.6,70.8,77.2,70.8,163s-10.7,109.4-70.8,163c-51.5,47.2-90.1,62.2-154.4,62.2S4908.9,2752.9,4857.4,2705.7z"/><path d="M1472.7,728.1c-308.9-27.9-611.3-165.1-827.9-373.2c-75.1-70.8-141.6-154.4-148-188.8C458.2,13.8,554.7-147.1,707-187.8c111.5-30,208.1,2.1,330.3,107.2c229.5,197.3,523.4,272.4,800,201.6c173.7-45,278.8-105.1,454.7-266c287.4-261.7,585.6-388.2,950.2-405.4c433.3-21.5,776.5,111.5,1130.4,437.6c255.2,233.8,559.8,315.3,855.8,229.5C5389.3,69.6,5503,0.9,5683.2-162.1c184.5-167.3,469.7-317.4,690.7-362.5c467.6-98.7,952.3,36.5,1317,366.8c203.8,182.3,375.4,266,587.7,281c220.9,17.2,416.1-42.9,604.9-186.6c182.3-137.3,205.9-150.1,304.6-150.1c214.5,0,353.9,235.9,253.1,429c-79.4,152.3-456.9,388.2-740,463.3c-182.3,47.2-523.4,49.3-707.8,2.2C7768,623,7523.5,490,7347.7,331.3c-87.9-81.5-220.9-173.7-298.1-210.2c-128.7-62.2-156.6-66.5-364.6-66.5c-208.1,0-235.9,4.3-366.8,66.5c-77.2,38.6-205.9,126.6-287.4,199.5c-268.1,244.5-538.4,371.1-868.7,407.5c-435.4,49.3-832.2-83.6-1179.7-394.7C3759.2,133.9,3596.2,58.9,3356,48.1c-298.1-15-422.5,38.6-759.3,323.9C2274.9,644.4,1888.9,766.7,1472.7,728.1z"/><path d="M241.6-833.4c-32.2-21.5-79.4-68.6-100.8-100.8c-38.6-57.9-40.8-113.7-40.8-791.5c0-677.8,2.1-733.6,40.8-791.5c62.2-94.4,150.1-141.6,263.8-141.6c94.4,0,103-4.3,113.7-57.9c6.4-34.3,42.9-154.4,77.2-268.1c190.9-607,673.5-1074.6,1317-1276.2l193-60h2863.5c2741.2,0,2869.9,2.1,3013.6,40.8c712.1,193,1252.6,735.7,1432.8,1434.9l47.2,186.6h135.1c122.3,0,139.4,6.4,214.5,72.9l79.4,72.9l6.4,746.4c6.4,806.5,4.3,825.8-107.2,920.2l-64.4,53.6H5016.1C436.8-792.7,301.6-794.8,241.6-833.4z M9318.8-1719.3l-6.4-349.6H5001.1H689.8l-6.4,321.7c-2.1,175.9,0,332.5,4.3,347.5c8.6,23.6,815.1,27.9,4324.1,27.9h4311.3L9318.8-1719.3z M8851.2-2680.2c0-60.1-120.1-323.9-205.9-452.6c-124.4-186.6-293.8-338.9-504.1-448.3c-330.3-171.6-124.4-160.9-3161.6-160.9c-2526.7,0-2711.2,2.1-2842,38.6c-422.6,115.8-748.6,383.9-926.6,757.1c-34.3,72.9-68.6,167.3-75.1,210.2l-12.9,77.2h3865.1C7489.2-2658.7,8851.2-2665.2,8851.2-2680.2z"/></g></g>
</svg>
