<?xml version="1.0" encoding="utf-8"?>
<!-- Generator: Adobe Illustrator 24.0.2, SVG Export Plug-In . SVG Version: 6.00 Build 0)  -->
<svg version="1.1" id="Layer_1" xmlns="http://www.w3.org/2000/svg" xmlns:xlink="http://www.w3.org/1999/xlink" x="0px" y="0px"
	 viewBox="0 0 512 512" style="enable-background:new 0 0 512 512;" xml:space="preserve">
<style type="text/css">
	.st0{fill:#fff;}
</style>
<path class="st0" d="M355.6727,489.3859c-22.5799-16.3092-57.1579-27.1784-96.3543-28.4858v-97.1928h8.7573
	c18.5784,0,36.446-7.8464,49.0201-21.5282c12.6337-13.7455,18.7295-31.5173,17.1649-50.0402
	c-0.4933-5.8391-1.3526-11.7087-2.5539-17.4449l-5.2887-25.2487c-12.0936-57.7373-14.6305-116.7073-7.5401-175.2717l0.0414-0.3389
	h-24.7289l7.8762-25.574l0.2415,0.1341c0.1017-0.8333,0.2487-1.6417,0.4232-2.4344l66.1942,18.0149L310.1984,8.0769
	l-78.9557,18.4275l64.3197,17.5048l-9.1856,29.8253H175.5631l0.0414,0.3389c7.0912,58.5639,4.5543,117.5339-7.5393,175.2717
	l-5.2887,25.2487c-1.2015,5.7363-2.0605,11.6054-2.5541,17.4442c-1.5646,18.5237,4.5314,36.2954,17.1651,50.0418
	c12.5741,13.6811,30.4412,21.5274,49.0201,21.5274h14.7739v97.2825c-38.2992,1.6296-72.021,12.3896-94.1823,28.3961
	c-6.0719,4.3855-3.0362,13.9573,4.4538,13.9573h199.766C358.7089,503.3432,361.7446,493.7714,355.6727,489.3859z M287.0266,270.0816
	c-9.2702,0-16.7851-7.5149-16.7851-16.7848c0-9.2704,7.5149-16.7851,16.7851-16.7851s16.7851,7.5146,16.7851,16.7851
	C303.8117,262.5667,296.2968,270.0816,287.0266,270.0816z M289.2722,89.8049h15.6768l-0.8063,54.0074h-31.5035L289.2722,89.8049z
	 M190.8884,89.8049h90.57l-16.633,54.0074h-71.9218L190.8884,89.8049z M237.9664,215.5187c0,6.3681-5.1622,11.5303-11.5306,11.5303
	c-6.3681,0-11.5303-5.1622-11.5303-11.5303s5.1622-11.5306,11.5303-11.5306C232.8042,203.9881,237.9664,209.1505,237.9664,215.5187z
	 M220.3324,316.7349c-12.2881,0-22.2498-9.9614-22.2498-22.2495s9.9616-22.2495,22.2498-22.2495
	c12.2879,0,22.2495,9.9614,22.2495,22.2495S232.6202,316.7349,220.3324,316.7349z"/>
</svg>
