<?xml version="1.0" encoding="UTF-8" standalone="no"?> <svg viewBox="0 0 64 64" fill="#fff" xmlns="http://www.w3.org/2000/svg">
<path d="M61.69 2.27702C61.5933 2.18256 61.478 2.10917 61.3515 2.06149C61.225 2.01381 61.09 1.99288 60.955 2.00002L50.934 2.45502C50.8026 2.4608 50.6737 2.49243 50.5546 2.5481C50.4354 2.60377 50.3285 2.68239 50.2398 2.77945C50.1511 2.87652 50.0824 2.99012 50.0376 3.11377C49.9929 3.23741 49.9729 3.36867 49.979 3.50002C49.9967 3.76287 50.1151 4.00876 50.3096 4.18648C50.5041 4.36419 50.7596 4.46002 51.023 4.45402L60 4.04702V7.00002H18V5.95502L47.028 4.63602C47.2932 4.62395 47.5428 4.50702 47.7218 4.31095C47.9008 4.11489 47.9946 3.85574 47.9825 3.59052C47.9704 3.3253 47.8535 3.07574 47.6574 2.89674C47.4614 2.71774 47.2022 2.62395 46.937 2.63602L16.954 4.00002C16.6968 4.01186 16.4541 4.12243 16.2764 4.30869C16.0987 4.49496 15.9997 4.74259 16 5.00002V7.00002H15C14.7348 7.00002 14.4804 7.10538 14.2929 7.29291C14.1053 7.48045 14 7.7348 14 8.00002V11C13.9997 11.2575 14.0987 11.5051 14.2764 11.6913C14.4541 11.8776 14.6968 11.9882 14.954 12L17.837 12.131C17.8621 13.0204 18.1614 13.8803 18.694 14.593C19.0028 14.9974 19.1701 15.4922 19.1701 16.001C19.1701 16.5099 19.0028 17.0046 18.694 17.409C18.136 18.1579 17.8331 19.0661 17.83 20C17.83 20.068 17.844 20.132 17.847 20.2C16.8385 21.1793 16.121 22.4188 15.774 23.781L15.124 26.381L6.44499 32.168C6.29794 32.2649 6.17907 32.3989 6.10042 32.5565C6.02177 32.714 5.98613 32.8896 5.99709 33.0653C6.00805 33.2411 6.06522 33.4108 6.16284 33.5574C6.26045 33.704 6.39504 33.8222 6.55299 33.9L10.553 35.9C10.7105 35.9784 10.8859 36.0139 11.0615 36.0028C11.237 35.9917 11.4066 35.9346 11.553 35.837L15.539 33.179L18 61.088C18.022 61.3377 18.1371 61.57 18.3223 61.7389C18.5075 61.9078 18.7493 62.001 19 62H25C25.2652 62 25.5196 61.8947 25.7071 61.7071C25.8946 61.5196 26 61.2652 26 61C26 60.7348 25.8946 60.4805 25.7071 60.2929C25.5196 60.1054 25.2652 60 25 60H19.916L19.033 50H24.61C25.5649 50.9872 26.7155 51.764 27.9881 52.2806C29.2607 52.7972 30.6272 53.0422 32 53C33.3728 53.0422 34.7393 52.7972 36.0119 52.2806C37.2845 51.764 38.4351 50.9872 39.39 50H42.059C42.3242 50 42.5786 49.8947 42.7661 49.7071C42.9536 49.5196 43.059 49.2652 43.059 49C43.059 48.7348 42.9536 48.4805 42.7661 48.2929C42.5786 48.1054 42.3242 48 42.059 48H38.921C38.7682 48.0001 38.6174 48.0352 38.4803 48.1027C38.3432 48.1701 38.2234 48.2681 38.13 48.389C37.3649 49.2505 36.4182 49.9315 35.3582 50.383C34.2982 50.8345 33.1513 51.0452 32 51C30.8487 51.0452 29.7018 50.8345 28.6418 50.383C27.5817 49.9315 26.6351 49.2505 25.87 48.389C25.7766 48.2681 25.6568 48.1701 25.5197 48.1027C25.3825 48.0352 25.2318 48.0001 25.079 48H18.857L18.5 44H25.075C25.2278 43.9999 25.3785 43.9648 25.5157 43.8974C25.6528 43.8299 25.7726 43.732 25.866 43.611C26.6315 42.749 27.5788 42.0677 28.6396 41.6162C29.7003 41.1647 30.8481 40.9542 32 41C33.1513 40.9548 34.2982 41.1656 35.3582 41.6171C36.4182 42.0686 37.3649 42.7496 38.13 43.611C38.2234 43.732 38.3432 43.8299 38.4803 43.8974C38.6174 43.9648 38.7682 43.9999 38.921 44H45.5L44.084 60H29C28.7348 60 28.4804 60.1054 28.2929 60.2929C28.1053 60.4805 28 60.7348 28 61C28 61.2652 28.1053 61.5196 28.2929 61.7071C28.4804 61.8947 28.7348 62 29 62H45C45.2506 62.001 45.4925 61.9078 45.6777 61.7389C45.8629 61.57 45.9779 61.3377 46 61.088L48.463 33.174L52.449 35.832C52.5954 35.9296 52.765 35.9867 52.9405 35.9978C53.1161 36.0089 53.2915 35.9734 53.449 35.895L57.449 33.895C57.6058 33.8168 57.7393 33.6987 57.8361 33.5526C57.9329 33.4065 57.9896 33.2376 58.0006 33.0626C58.0115 32.8877 57.9763 32.713 57.8984 32.556C57.8206 32.399 57.7028 32.2652 57.557 32.168L48.977 26.448C48.9539 25.1094 48.5505 23.805 47.814 22.687C47.1503 21.6868 46.2491 20.8667 45.1908 20.3C44.1326 19.7334 42.9504 19.4379 41.75 19.44C41.541 19.44 41.336 19.448 41.132 19.463C40.304 18.8259 39.3481 18.3754 38.3297 18.1424C37.3113 17.9094 36.2546 17.8994 35.232 18.113C34.0895 17.5832 32.8291 17.3588 31.574 17.462C30.8503 16.9112 30.0293 16.5017 29.154 16.255C29.159 16.17 29.174 16.083 29.174 16C29.1711 15.0658 28.8682 14.1572 28.31 13.408C28.1302 13.1612 27.9976 12.8831 27.919 12.588L30.053 12.688C29.879 13.2279 29.8111 13.7963 29.853 14.362C29.9388 15.0618 30.2684 15.709 30.7838 16.19C31.2993 16.6711 31.9677 16.9552 32.6717 16.9925C33.3758 17.0299 34.0705 16.8181 34.6339 16.3943C35.1974 15.9705 35.5936 15.3618 35.753 14.675C35.9653 15.0525 36.2325 15.3962 36.546 15.695C37.07 16.1776 37.7577 16.4432 38.47 16.438C39.2359 16.4357 39.973 16.1463 40.536 15.627C40.8667 15.3215 41.124 14.945 41.2887 14.526C41.4534 14.1069 41.5212 13.656 41.487 13.207L58.962 14.007H59C59.2652 14.007 59.5196 13.9017 59.7071 13.7141C59.8946 13.5266 60 13.2722 60 13.007V9.00002H61C61.2652 9.00002 61.5196 8.89466 61.7071 8.70713C61.8946 8.51959 62 8.26524 62 8.00002V3.00002C61.9999 2.86481 61.9724 2.73103 61.9191 2.60676C61.8658 2.48249 61.7879 2.37032 61.69 2.27702V2.27702ZM22.69 14.592C23.0004 14.9989 23.1678 15.4969 23.1659 16.0087C23.1641 16.5205 22.9933 17.0173 22.68 17.422L22.615 17.513C22.3879 17.6897 22.1715 17.8797 21.967 18.082L21.951 18.098C21.3867 18.1957 20.8354 18.3577 20.308 18.581C20.8676 17.8329 21.1693 16.9234 21.1679 15.9892C21.1664 15.0549 20.8619 14.1464 20.3 13.4C19.9958 12.9967 19.8312 12.5052 19.8312 12C19.8312 11.4948 19.9958 11.0034 20.3 10.6L21.5 9.00002H23L22.7 9.40002C22.1345 10.1471 21.828 11.0581 21.827 11.995C21.8259 12.9319 22.1303 13.8437 22.694 14.592H22.69ZM16 9.00002H19L18.7 9.40002C18.5293 9.63369 18.3819 9.88356 18.26 10.146L16 10.045V9.00002ZM26 28C26.2652 28 26.5196 27.8947 26.7071 27.7071C26.8946 27.5196 27 27.2652 27 27C27 26.7348 26.8946 26.4804 26.7071 26.2929C26.5196 26.1054 26.2652 26 26 26H21.4L21.592 25.234C21.68 24.881 21.8838 24.5677 22.1707 24.344C22.4576 24.1204 22.8112 23.9993 23.175 24C23.607 24.0013 24.0349 23.9168 24.434 23.7515C24.8331 23.5862 25.1954 23.3434 25.5 23.037L26.212 22.325C26.4576 22.0911 26.7838 21.9606 27.123 21.9606C27.4622 21.9606 27.7884 22.0911 28.034 22.325L28.415 22.707C28.8458 23.1407 29.3895 23.4449 29.9845 23.5852C30.5794 23.7256 31.2018 23.6964 31.781 23.501C32.0492 23.4124 32.3391 23.414 32.6063 23.5055C32.8735 23.5971 33.1035 23.7736 33.261 24.008C33.4229 24.2521 33.4956 24.5446 33.4668 24.8361C33.438 25.1277 33.3095 25.4003 33.103 25.608L32.709 26H30C29.7348 26 29.4804 26.1054 29.2929 26.2929C29.1053 26.4804 29 26.7348 29 27C29 27.2652 29.1053 27.5196 29.2929 27.7071C29.4804 27.8947 29.7348 28 30 28H46.132L41.465 35H22.535L17.868 28H26ZM39.447 24.648C39.7474 24.6412 40.0452 24.5907 40.331 24.498C40.4603 24.457 40.5954 24.4374 40.731 24.44C40.9455 24.4376 41.1572 24.489 41.3467 24.5894C41.5362 24.6899 41.6976 24.8362 41.816 25.015C41.9538 25.2222 42.0253 25.4663 42.021 25.715C42.0178 25.813 42.0034 25.9103 41.978 26.005H39.321C39.4044 25.5575 39.4466 25.1033 39.447 24.648V24.648ZM10.928 33.848L8.98799 32.878L15.152 28.769L15.341 30.906L10.928 33.848ZM39.39 42C38.4351 41.0129 37.2845 40.2361 36.0119 39.7195C34.7393 39.2028 33.3728 38.9578 32 39C30.6272 38.9578 29.2607 39.2028 27.9881 39.7195C26.7155 40.2361 25.5649 41.0129 24.61 42H18.327L17.34 30.813L21.168 36.555C21.2593 36.6919 21.3831 36.8042 21.5282 36.8818C21.6733 36.9594 21.8354 37 22 37H42C42.1646 37 42.3266 36.9594 42.4718 36.8818C42.6169 36.8042 42.7406 36.6919 42.832 36.555L46.66 30.813L45.673 42H39.39ZM53.072 33.846L48.659 30.9L48.848 28.763L55.012 32.872L53.072 33.846ZM40.948 21.492C41.2132 21.4571 41.4805 21.4397 41.748 21.44C42.619 21.4381 43.4768 21.6522 44.2447 22.0632C45.0126 22.4742 45.6665 23.0692 46.148 23.795C46.5862 24.4547 46.8627 25.2085 46.955 25.995H44C44.008 25.895 44.021 25.803 44.021 25.705C44.0258 25.0599 43.8359 24.4284 43.476 23.893C43.1749 23.4417 42.7665 23.0722 42.2874 22.8178C41.8083 22.5633 41.2735 22.4318 40.731 22.435C40.3767 22.4318 40.0242 22.4873 39.688 22.599C39.5135 22.654 39.3284 22.6667 39.148 22.636C38.9493 21.9408 38.6458 21.2799 38.248 20.676C38.1004 20.46 37.9405 20.2526 37.769 20.055C38.656 20.2417 39.4795 20.6551 40.159 21.255C40.2671 21.3466 40.393 21.415 40.5288 21.4558C40.6645 21.4965 40.8073 21.5089 40.948 21.492V21.492ZM31.412 19.492C32.2712 19.3599 33.1498 19.4433 33.9688 19.7348C34.7877 20.0263 35.5214 20.5168 36.1039 21.1621C36.6863 21.8074 37.0993 22.5874 37.3056 23.4318C37.512 24.2763 37.5052 25.1588 37.286 26H35.2C35.4521 25.4191 35.5302 24.7774 35.4247 24.153C35.3192 23.5285 35.0348 22.9481 34.6058 22.4822C34.1769 22.0163 33.6219 21.685 33.0083 21.5284C32.3946 21.3718 31.7487 21.3967 31.149 21.6C30.9222 21.6767 30.6785 21.6882 30.4455 21.6333C30.2125 21.5783 29.9996 21.459 29.831 21.289L29.449 20.907C28.8321 20.2909 27.9959 19.9448 27.124 19.9448C26.2521 19.9448 25.4159 20.2909 24.799 20.907L24.087 21.619C23.9676 21.739 23.8257 21.8341 23.6693 21.8988C23.5129 21.9635 23.3452 21.9966 23.176 21.996C22.3665 21.9951 21.58 22.2654 20.942 22.7636C20.304 23.2619 19.8513 23.9594 19.656 24.745L19.343 26H17.28L17.714 24.265C17.9946 23.1545 18.6059 22.1555 19.467 21.4003C20.3282 20.6451 21.3984 20.1693 22.536 20.036C22.7606 20.0106 22.97 19.9098 23.13 19.75L23.384 19.497C24.3324 18.5486 25.6057 17.9959 26.9462 17.951C28.2867 17.906 29.5942 18.3722 30.604 19.255C30.7133 19.3511 30.8422 19.4221 30.9817 19.4632C31.1213 19.5044 31.2681 19.5145 31.412 19.493V19.492ZM27.123 15.947C26.4565 15.9481 25.7933 16.0406 25.152 16.222C25.152 16.147 25.17 16.074 25.17 15.999C25.1668 15.0616 24.8622 14.15 24.301 13.399C23.9968 12.9957 23.8322 12.5042 23.8322 11.999C23.8322 11.4938 23.9968 11.0024 24.301 10.599L25.5 9.00002H27L26.694 9.40802C26.1332 10.1558 25.83 11.0653 25.83 12C25.83 12.9347 26.1332 13.8442 26.694 14.592C26.9883 14.9856 27.1532 15.4608 27.166 15.952C27.151 15.952 27.138 15.948 27.123 15.948V15.947ZM32.83 15C32.5951 15.0079 32.3653 14.9307 32.1829 14.7826C32.0004 14.6345 31.8776 14.4255 31.837 14.194C31.8025 13.698 31.9257 13.2038 32.189 12.782L34 12.864C33.8938 13.2301 33.8376 13.6089 33.833 13.99C33.8335 14.1222 33.808 14.2532 33.7579 14.3755C33.7077 14.4979 33.634 14.6091 33.5408 14.7029C33.4477 14.7967 33.3369 14.8712 33.215 14.9222C33.093 14.9732 32.9622 14.9996 32.83 15ZM39.173 14.153C39.0055 14.3164 38.7847 14.4139 38.5511 14.4279C38.3176 14.4418 38.0868 14.3713 37.901 14.229C37.5532 13.9013 37.3121 13.4766 37.209 13.01L39.448 13.11C39.5091 13.2917 39.5156 13.4873 39.4667 13.6727C39.4178 13.8581 39.3157 14.0251 39.173 14.153V14.153ZM58 11.953L28.3 10.6L29.5 9.00002H58V11.953Z"/>
</svg>
